<?xml version="1.0" standalone="no"?>
<!DOCTYPE svg PUBLIC "-//W3C//DTD SVG 20010904//EN"
 "http://www.w3.org/TR/2001/REC-SVG-20010904/DTD/svg10.dtd">
<svg version="1.0" xmlns="http://www.w3.org/2000/svg"
 width="300.000000pt" height="300.000000pt" viewBox="0 0 300.000000 300.000000"
 preserveAspectRatio="xMidYMid meet">
<metadata>
Created by potrace 1.14, written by Peter Selinger 2001-2017
</metadata>
<g transform="translate(0.000000,300.000000) scale(0.100000,-0.100000)"
fill="#000000" stroke="none">
<path d="M1285 2829 c-27 -5 -64 -10 -82 -13 -18 -3 -42 -10 -53 -16 -11 -6
-20 -9 -20 -6 0 6 -56 -17 -136 -55 -187 -90 -351 -256 -462 -471 -55 -104
-112 -271 -127 -366 -3 -15 -9 -54 -14 -87 -11 -73 -12 -332 0 -400 4 -28 10
-68 14 -90 12 -75 57 -230 91 -314 49 -119 78 -174 142 -271 95 -145 181 -239
320 -352 80 -65 235 -146 349 -181 113 -36 158 -42 313 -42 108 1 151 5 215
23 360 101 622 379 739 785 14 48 28 109 32 135 3 26 10 65 15 87 16 75 4 379
-20 495 -102 481 -373 855 -756 1041 -173 85 -395 123 -560 98z"/>
</g>
</svg>
